<?xml version="1.0" encoding="utf-8"?>
<!-- Generator: Adobe Illustrator 16.0.0, SVG Export Plug-In . SVG Version: 6.00 Build 0)  -->
<!DOCTYPE svg PUBLIC "-//W3C//DTD SVG 1.1//EN" "http://www.w3.org/Graphics/SVG/1.1/DTD/svg11.dtd">
<svg version="1.1" xmlns="http://www.w3.org/2000/svg" xmlns:xlink="http://www.w3.org/1999/xlink" x="0px" y="0px" width="48px"
	 height="48px" viewBox="0 0 48 48" enable-background="new 0 0 48 48" xml:space="preserve">
<g id="画板的参考线">
</g>
<g id="图层_2">
	<g>
		<path fill="#447FBA" d="M11.216,1.431c0,0,3.012,2.102,5.569,3.081c2.556,0.981,3.292,1.366,6.688,1.401
			c3.397,0.035,6.619,0.35,10.087-1.155c3.467-1.507,5.498-2.942,5.498-2.942l0.489-0.385c0,0-1.05,1.33-2.311,2.592
			c-1.261,1.26-3.957,2.767-3.957,2.767v0.28c0,0,1.681,0.84,2.977,1.785s1.891,1.751,1.891,1.751s-2.136-1.33-3.361-1.471
			c-1.226-0.14-2.416-0.28-3.468-0.034c-1.05,0.244-2.942,0.91-4.412,1.961c-1.471,1.05-1.524,1.364-1.524,1.364h-0.297
			c0,0-3.468-2.766-4.623-2.976c-1.156-0.211-2.521-0.7-3.957-0.386c-1.437,0.315-3.642,1.296-3.642,1.296l-0.561,0.385
			c0,0,0.314-1.189,2.311-2.381c1.996-1.19,2.452-1.227,2.452-1.227l0.315-0.209v-0.21c0,0-0.561,0.175-2.417-1.366
			c-1.856-1.542-2.452-2.102-2.452-2.102L11.461,2.2l-0.419-0.77H11.216z"/>
		<g>
			<circle fill="#447FBA" cx="18.343" cy="18.328" r="6.952"/>
			<path fill="#FFFFFF" d="M12.308,17.61c-0.053,0.33-0.081,0.669-0.081,1.016c0,3.462,2.739,6.269,6.116,6.269
				c3.379,0,6.116-2.807,6.116-6.269c0-0.347-0.028-0.686-0.081-1.016H12.308z"/>
			<path fill="#EB7725" d="M13.844,17.61c-0.098,0.378-0.149,0.774-0.149,1.184c0,2.583,2.087,4.679,4.662,4.679
				c2.574,0,4.663-2.096,4.663-4.679c0-0.409-0.053-0.806-0.151-1.184H13.844z"/>
			<path fill="#080507" d="M15.884,17.61c-0.096,0.285-0.15,0.591-0.15,0.91c0,1.509,1.161,2.731,2.592,2.731
				c1.432,0,2.593-1.223,2.593-2.731c0-0.319-0.057-0.625-0.151-0.91H15.884z"/>
			<path fill="#FEFEF6" d="M19.742,17.61c0.098,0.674,0.648,1.19,1.315,1.19c0.666,0,1.217-0.517,1.313-1.19H19.742z"/>
		</g>
		<g>
			<circle fill="#447FBA" cx="32.229" cy="18.328" r="6.952"/>
			<path fill="#FFFFFF" d="M26.193,17.61c-0.052,0.33-0.081,0.669-0.081,1.016c0,3.462,2.738,6.269,6.117,6.269
				c3.378,0,6.116-2.807,6.116-6.269c0-0.347-0.028-0.686-0.081-1.016H26.193z"/>
			<path fill="#EB7725" d="M27.73,17.61c-0.098,0.378-0.15,0.774-0.15,1.184c0,2.583,2.087,4.679,4.662,4.679
				s4.662-2.096,4.662-4.679c0-0.409-0.053-0.806-0.15-1.184H27.73z"/>
			<path fill="#080507" d="M29.771,17.61c-0.097,0.285-0.151,0.591-0.151,0.91c0,1.509,1.159,2.731,2.591,2.731
				s2.592-1.223,2.592-2.731c0-0.319-0.055-0.625-0.15-0.91H29.771z"/>
			<path fill="#FEFEF6" d="M33.629,17.61c0.097,0.674,0.647,1.19,1.314,1.19c0.666,0,1.217-0.517,1.313-1.19H33.629z"/>
		</g>
		<polygon fill="#EB7725" points="23.347,23.185 25.295,19.527 27.379,23.257 25.327,27.398 		"/>
		<path fill="#447FBA" d="M9.64,20.541c0,0,2.662,4.878,6.094,6.857c3.083,2.819,9.177,7.022,9.177,7.022s8.931-5.814,11.994-9.14
			c3.064-3.328,3.976-4.74,3.976-4.74s-2.031,10.447-3.293,14.79c-1.261,4.343-2.644,9.244-2.644,9.244h-20.33
			c0,0-0.5-1.259-2.387-10.014C10.341,25.805,9.64,20.541,9.64,20.541z"/>
		<g>
			<path fill="#EB7725" d="M17.695,46.346c0,0.454-0.368,0.822-0.823,0.822l0,0c-0.454,0-0.822-0.368-0.822-0.822v-3.853
				c0-0.454,0.368-0.824,0.822-0.824l0,0c0.455,0,0.823,0.37,0.823,0.824V46.346z"/>
			<path fill="#EB7725" d="M21.897,46.346c0,0.454-0.368,0.822-0.822,0.822l0,0c-0.454,0-0.824-0.368-0.824-0.822v-3.853
				c0-0.454,0.37-0.824,0.824-0.824l0,0c0.454,0,0.822,0.37,0.822,0.824V46.346z"/>
			<path fill="#EB7725" d="M19.866,47.06c0,0.523-0.368,0.949-0.822,0.949l0,0c-0.455,0-0.824-0.426-0.824-0.949v-4.44
				c0-0.524,0.369-0.95,0.824-0.95l0,0c0.454,0,0.822,0.426,0.822,0.95V47.06z"/>
		</g>
		<g>
			<path fill="#EB7725" d="M29.147,46.346c0,0.454-0.368,0.822-0.823,0.822l0,0c-0.454,0-0.823-0.368-0.823-0.822v-3.853
				c0-0.454,0.369-0.824,0.823-0.824l0,0c0.455,0,0.823,0.37,0.823,0.824V46.346z"/>
			<path fill="#EB7725" d="M33.35,46.346c0,0.454-0.368,0.822-0.822,0.822l0,0c-0.454,0-0.823-0.368-0.823-0.822v-3.853
				c0-0.454,0.369-0.824,0.823-0.824l0,0c0.454,0,0.822,0.37,0.822,0.824V46.346z"/>
			<path fill="#EB7725" d="M31.318,47.06c0,0.523-0.368,0.949-0.822,0.949l0,0c-0.456,0-0.823-0.426-0.823-0.949v-4.44
				c0-0.524,0.367-0.95,0.823-0.95l0,0c0.454,0,0.822,0.426,0.822,0.95V47.06z"/>
		</g>
		<rect x="24.551" y="34.28" fill="#B7B7B7" width="0.721" height="10.295"/>
		<path fill="#2B2F80" d="M20.471,1.653V5.65c0,0,2.393,0.813,4.79,0.728c2.396-0.086,4.708-0.515,4.708-0.515l0.021-4.108
			L20.471,1.653z"/>
		<polygon fill="#4381BA" points="16.014,0 34.506,0 25.474,3.51 		"/>
	</g>
</g>
</svg>
