<?xml version="1.0" encoding="utf-8"?>
<!-- Generator: Adobe Illustrator 16.0.0, SVG Export Plug-In . SVG Version: 6.00 Build 0)  -->
<!DOCTYPE svg PUBLIC "-//W3C//DTD SVG 1.1//EN" "http://www.w3.org/Graphics/SVG/1.1/DTD/svg11.dtd">
<svg version="1.1" id="图层_1" xmlns="http://www.w3.org/2000/svg" xmlns:xlink="http://www.w3.org/1999/xlink" x="0px" y="0px"
	 width="19px" height="19px" viewBox="0 0 19 19" enable-background="new 0 0 19 19" xml:space="preserve">
<g>
	<path fill="#E65C13" d="M16.82,11.012v-9.58c0-0.67-0.317-1.181-0.875-1.385c-0.157-0.059-0.332-0.082-0.498-0.082
		C11.645-0.04,7.844-0.039,4.044-0.039c-0.061,0-0.12,0-0.178,0.004C3.201,0.019,2.677,0.622,2.677,1.363
		c-0.002,5.42-0.002,10.84,0,16.261c0,0.489,0.191,0.872,0.545,1.147c0.537,0.417,1.199,0.341,1.695-0.199
		c1.011-1.104,2.019-2.213,3.027-3.32c0.596-0.651,1.189-1.302,1.801-1.974c0.076,0.08,0.129,0.133,0.183,0.192
		c1.545,1.694,3.089,3.39,4.636,5.083c0.429,0.473,0.933,0.609,1.483,0.353c0.552-0.257,0.781-0.763,0.778-1.439
		C16.815,15.315,16.82,13.164,16.82,11.012L16.82,11.012z M14.129,6.774l-2.296,1.661l0.884,2.7
		c0.014,0.042,0.022,0.087,0.022,0.135c0,0.235-0.19,0.426-0.427,0.426c-0.093,0-0.179-0.029-0.25-0.081l0,0L9.75,9.943
		l-2.313,1.672c-0.072,0.052-0.157,0.081-0.25,0.081c-0.235,0-0.427-0.19-0.427-0.426c0-0.047,0.008-0.093,0.021-0.135l0.884-2.7
		L5.37,6.774C5.263,6.697,5.192,6.571,5.192,6.428c0-0.236,0.19-0.426,0.428-0.426h2.841l0.879-2.688
		C9.394,3.14,9.557,3.012,9.75,3.012c0.192,0,0.354,0.128,0.409,0.302l0.878,2.688h2.841c0.235,0,0.426,0.19,0.426,0.426
		C14.305,6.571,14.236,6.697,14.129,6.774L14.129,6.774L14.129,6.774z M14.129,6.774"/>
</g>
</svg>
